<svg width="1000" height="1000" viewBox="0 0 1000 1000" fill="none"
    xmlns="http://www.w3.org/2000/svg">
    <rect width="1000" height="1000" rx="150" fill="#27272A"/>
    <path d="M190 819V191.493H302.519L320.889 269.644H330.074C341.556 238.23 356.099 215.628 373.704 201.836C392.074 187.279 416.185 180 446.037 180C479.716 180 505.358 188.811 522.963 206.433C540.568 224.056 552.432 249.723 558.556 283.435H564.296C578.074 249.723 594.531 224.056 613.667 206.433C632.802 188.811 658.827 180 691.741 180C741.494 180 773.642 199.538 788.185 238.613C802.728 277.689 810 335.153 810 411.005V819H666.481V377.676C666.481 358.522 663.802 343.964 658.444 334.004C653.086 323.277 641.988 317.914 625.148 317.914C606.012 317.914 592.617 325.192 584.963 339.75C577.309 354.308 573.481 378.826 573.481 413.304V819H427.667V377.676C427.667 357.755 424.605 342.815 418.481 332.854C413.123 322.894 402.025 317.914 385.185 317.914C366.049 317.914 352.654 324.809 345 338.601C337.346 352.392 333.519 377.293 333.519 413.304V819H190Z" fill="#4ADE80"/>
</svg>
